<svg xmlns="http://www.w3.org/2000/svg" viewBox="0 0 357 70">
	<path
		d="M31.68 17.46V47.3c0 1.28.4 2.18 1.19 2.71.79.53 1.82.8 3.08.8.77 0 1.51-.08 2.22-.25.71-.16 1.42-.38 2.12-.66l1.1 3.02c-.7.34-1.57.65-2.61.92-1.04.27-2.21.4-3.52.4-2.29 0-4.14-.63-5.57-1.9-1.42-1.27-2.13-3.02-2.13-5.26V20.72h-7.92v-3.26h12.04zM64.11 27.85V50.4h7.28v3.26h-11.4V31.11h-7.72v-3.26h11.84zm-3.26-12.08c.9 0 1.63.28 2.18.83.56.55.83 1.23.83 2.03 0 .83-.28 1.53-.83 2.1-.56.56-1.28.85-2.18.85-.88 0-1.6-.28-2.15-.85-.55-.56-.82-1.26-.82-2.1 0-.8.27-1.48.82-2.03.55-.55 1.27-.83 2.15-.83zM97.48 27.31c.82 0 1.61.18 2.38.54.77.36 1.4 1.05 1.89 2.08s.74 2.53.74 4.51v19.22h-3.82V35.11c0-1.62-.1-2.79-.29-3.51-.2-.72-.76-1.08-1.69-1.08-.77 0-1.54.24-2.3.72-.77.48-1.5 1.27-2.21 2.37v20.05h-3.85V35.11c0-1.62-.1-2.79-.29-3.51-.2-.72-.76-1.08-1.69-1.08-.8 0-1.58.24-2.33.72s-1.48 1.27-2.18 2.37v20.05h-3.8V27.85h3.24l.25 2.99c.7-1 1.49-1.84 2.37-2.51.87-.68 1.96-1.02 3.25-1.02.98 0 1.9.23 2.77.7.87.47 1.5 1.37 1.91 2.71.7-1.01 1.5-1.83 2.38-2.46.84-.63 1.94-.95 3.27-.95zM122.95 27.85v25.82h-4.12V31.11h-7.72v-3.26h11.84zm-3.26-12.08c.9 0 1.63.28 2.18.83.56.55.83 1.23.83 2.03 0 .83-.28 1.53-.83 2.1-.56.56-1.28.85-2.18.85-.88 0-1.6-.28-2.15-.85-.55-.56-.82-1.26-.82-2.1 0-.8.27-1.48.82-2.03.55-.55 1.27-.83 2.15-.83zM159.8 52.37c-.88.59-1.95 1.05-3.21 1.37-1.26.33-2.49.49-3.7.49-2.78 0-4.92-.73-6.42-2.18-1.5-1.46-2.26-3.33-2.26-5.61v-15.4h-5.93v-3.19h5.93v-5.86l4.12-.49v6.35h8.92l-.49 3.19h-8.43v15.35c0 1.44.38 2.53 1.14 3.29.76.75 2.02 1.13 3.79 1.13.96 0 1.85-.11 2.67-.34.82-.23 1.58-.52 2.28-.88l1.59 2.78zM208.19 17.46V47.3c0 1.28.4 2.18 1.19 2.71.79.53 1.82.8 3.08.8.77 0 1.51-.08 2.22-.25.71-.16 1.42-.38 2.12-.66l1.1 3.02c-.7.34-1.57.65-2.61.92-1.04.27-2.21.4-3.52.4-2.29 0-4.14-.63-5.57-1.9-1.42-1.27-2.13-3.02-2.13-5.26V20.72h-7.92v-3.26h12.04zM240.62 27.85v25.82h-4.12V31.11h-7.72v-3.26h11.84zm-3.26-12.08c.9 0 1.63.28 2.18.83.55.55.83 1.23.83 2.03 0 .83-.28 1.53-.83 2.1-.56.56-1.28.85-2.18.85-.88 0-1.6-.28-2.14-.85-.55-.56-.82-1.26-.82-2.1 0-.8.27-1.48.82-2.03.54-.55 1.26-.83 2.14-.83zM256.97 53.67V27.85h3.51l.32 3.58c1.05-1.32 2.35-2.34 3.92-3.05 1.57-.71 3.11-1.07 4.61-1.07 2.53 0 4.38.67 5.53 2.01 1.15 1.34 1.73 3.2 1.73 5.59v18.76h-4.12V37.95c0-1.76-.1-3.19-.29-4.27-.2-1.08-.61-1.87-1.24-2.38-.63-.51-1.59-.76-2.88-.76-1.01 0-1.97.22-2.86.66-.89.44-1.68.99-2.38 1.66-.69.66-1.27 1.33-1.73 2v18.8h-4.12zM289.63 42.22c.11 2.99.9 5.17 2.36 6.53s3.19 2.05 5.19 2.05c1.32 0 2.52-.2 3.58-.59 1.06-.39 2.17-.97 3.31-1.74l1.94 2.72c-1.19.95-2.57 1.69-4.12 2.23-1.55.54-3.14.81-4.76.81-2.52 0-4.65-.56-6.41-1.69-1.76-1.13-3.1-2.7-4.02-4.72-.92-2.02-1.38-4.36-1.38-7.02 0-2.61.46-4.94 1.38-6.96s2.23-3.62 3.92-4.78c1.69-1.16 3.68-1.74 5.97-1.74 3.25 0 5.81 1.13 7.69 3.38s2.81 5.34 2.81 9.27c0 .44-.01.86-.04 1.25s-.05.73-.06 1h-17.36zm7.01-11.52c-1.91 0-3.51.68-4.8 2.04-1.29 1.36-2.02 3.46-2.18 6.3h13.46c-.05-2.76-.65-4.84-1.82-6.24-1.16-1.4-2.72-2.1-4.66-2.1zM324.59 50.83c1.99 0 3.56-.37 4.71-1.1 1.14-.74 1.72-1.73 1.72-2.99 0-.77-.14-1.44-.43-2.01s-.87-1.09-1.75-1.56-2.24-.93-4.07-1.38c-1.78-.44-3.33-.95-4.65-1.53s-2.34-1.34-3.06-2.27c-.73-.93-1.09-2.14-1.09-3.63 0-2.17.91-3.89 2.72-5.15 1.81-1.26 4.18-1.89 7.09-1.89 2.08 0 3.89.28 5.43.83 1.54.56 2.86 1.23 3.94 2.01l-1.82 2.79c-.96-.67-2.04-1.22-3.22-1.66-1.18-.43-2.61-.65-4.28-.65-2.03 0-3.47.31-4.31.94-.85.63-1.28 1.44-1.28 2.44 0 .77.21 1.4.63 1.9.42.5 1.12.94 2.12 1.34 1 .39 2.37.83 4.12 1.3 1.68.46 3.15 1 4.41 1.62 1.26.62 2.24 1.43 2.93 2.44.69 1 1.04 2.31 1.04 3.91 0 1.83-.52 3.31-1.57 4.45-1.05 1.14-2.4 1.96-4.06 2.48-1.66.52-3.41.77-5.26.77-2.34 0-4.33-.34-5.97-1.02-1.64-.68-3.02-1.5-4.13-2.46l2.35-2.72c1.01.83 2.18 1.51 3.49 2.02s2.73.78 4.25.78z" />
	<path d="M16.7 41.37v-1.23h323.6v1.23H16.7z" />
</svg>